<?xml version="1.0" encoding="UTF-8" standalone="no"?>
<!DOCTYPE svg PUBLIC "-//W3C//DTD SVG 1.1//EN"
 "http://www.w3.org/Graphics/SVG/1.1/DTD/svg11.dtd">
<!-- Generated by graphviz version 2.40.1 (20161225.0304)
 -->
<!-- Title: electricty Pages: 1 -->
<svg width="1099pt" height="662pt"
 viewBox="0.00 0.00 1098.50 662.46" xmlns="http://www.w3.org/2000/svg" xmlns:xlink="http://www.w3.org/1999/xlink">
<g id="graph0" class="graph" transform="scale(1 1) rotate(0) translate(4 658.4616)">
<title>electricty</title>
<polygon fill="#ffffff" stroke="transparent" points="-4,4 -4,-658.4616 1094.5,-658.4616 1094.5,4 -4,4"/>
<text text-anchor="middle" x="545.25" y="-13" font-family="Helvetica,sans-Serif" font-size="30.00" fill="#000000">Lights &#45;&#45; how do they work?</text>
<!-- Cats -->
<g id="node1" class="node">
<title>Cats</title>
<ellipse fill="#5f7fff" stroke="#000000" cx="782" cy="-511" rx="59.2941" ry="28.9828"/>
<text text-anchor="middle" x="782" y="-503.5" font-family="Helvetica,sans-Serif" font-size="30.00" fill="#000000">Cats</text>
</g>
<!-- lights -->
<g id="node11" class="node">
<title>lights</title>
<polygon fill="#ffff00" stroke="#000000" points="829,-422.5 735,-422.5 731,-418.5 731,-381.5 825,-381.5 829,-385.5 829,-422.5"/>
<polyline fill="none" stroke="#000000" points="825,-418.5 731,-418.5 "/>
<polyline fill="none" stroke="#000000" points="825,-418.5 825,-381.5 "/>
<polyline fill="none" stroke="#000000" points="825,-418.5 829,-422.5 "/>
<text text-anchor="middle" x="780" y="-394.5" font-family="Helvetica,sans-Serif" font-size="30.00" fill="#000000">lights</text>
</g>
<!-- Cats&#45;&gt;lights -->
<g id="edge5" class="edge">
<title>Cats&#45;&gt;lights</title>
<path fill="none" stroke="#000000" stroke-width="2" d="M781.464,-481.79C781.1858,-466.6239 780.8459,-448.1005 780.5637,-432.7202"/>
<polygon fill="#000000" stroke="#000000" stroke-width="2" points="784.0619,-432.5883 780.379,-422.6543 777.0631,-432.7168 784.0619,-432.5883"/>
</g>
<!-- People -->
<g id="node2" class="node">
<title>People</title>
<ellipse fill="#5f7fff" stroke="#000000" cx="903" cy="-621" rx="82.0488" ry="28.9828"/>
<text text-anchor="middle" x="903" y="-613.5" font-family="Helvetica,sans-Serif" font-size="30.00" fill="#000000">People</text>
</g>
<!-- People&#45;&gt;Cats -->
<g id="edge7" class="edge">
<title>People&#45;&gt;Cats</title>
<path fill="none" stroke="#000000" stroke-width="2" d="M865.6606,-587.0551C850.4695,-573.245 832.9838,-557.349 817.9389,-543.6718"/>
<polygon fill="#000000" stroke="#000000" stroke-width="2" points="863.3361,-589.672 873.0899,-593.809 868.0448,-584.4924 863.3361,-589.672"/>
<polygon fill="#000000" stroke="#000000" stroke-width="2" points="820.0728,-540.8815 810.319,-536.7445 815.364,-546.0611 820.0728,-540.8815"/>
</g>
<!-- bill -->
<g id="node6" class="node">
<title>bill</title>
<polygon fill="#eee8aa" stroke="#000000" points="957,-531.5 903,-531.5 903,-490.5 963,-490.5 963,-525.5 957,-531.5"/>
<polyline fill="none" stroke="#000000" points="957,-531.5 957,-525.5 "/>
<polyline fill="none" stroke="#000000" points="963,-525.5 957,-525.5 "/>
<text text-anchor="middle" x="933" y="-503.5" font-family="Helvetica,sans-Serif" font-size="30.00" fill="#000000">bill</text>
</g>
<!-- People&#45;&gt;bill -->
<g id="edge12" class="edge">
<title>People&#45;&gt;bill</title>
<path fill="none" stroke="#000000" stroke-width="2" d="M910.8821,-592.0988C915.1259,-576.5383 920.3592,-557.3494 924.6698,-541.5441"/>
<polygon fill="#000000" stroke="#000000" stroke-width="2" points="928.0949,-542.287 927.3495,-531.7184 921.3416,-540.4451 928.0949,-542.287"/>
</g>
<!-- People&#45;&gt;lights -->
<g id="edge6" class="edge">
<title>People&#45;&gt;lights</title>
<path fill="none" stroke="#000000" stroke-width="2" d="M895.2159,-591.9601C886.6772,-562.8583 871.2988,-517.4168 850,-482.0086 838.6583,-463.1536 822.699,-444.5082 808.8826,-429.9664"/>
<polygon fill="#000000" stroke="#000000" stroke-width="2" points="811.3637,-427.4974 801.8887,-422.7567 806.3393,-432.3714 811.3637,-427.4974"/>
</g>
<!-- Generation_System -->
<g id="node3" class="node">
<title>Generation_System</title>
<ellipse fill="#00ff00" stroke="#000000" cx="234" cy="-292" rx="219.8205" ry="28.9828"/>
<text text-anchor="middle" x="234" y="-284.5" font-family="Helvetica,sans-Serif" font-size="30.00" fill="#000000">Generation_System</text>
</g>
<!-- Distribution_System -->
<g id="node4" class="node">
<title>Distribution_System</title>
<ellipse fill="#00ff00" stroke="#000000" cx="481" cy="-182" rx="224.72" ry="28.9828"/>
<text text-anchor="middle" x="481" y="-174.5" font-family="Helvetica,sans-Serif" font-size="30.00" fill="#000000">Distribution_System</text>
</g>
<!-- Generation_System&#45;&gt;Distribution_System -->
<g id="edge9" class="edge">
<title>Generation_System&#45;&gt;Distribution_System</title>
<path fill="none" stroke="#000000" stroke-width="2" d="M296.6478,-264.1002C330.8906,-248.8503 373.4544,-229.8948 409.0532,-214.0411"/>
<polygon fill="#000000" stroke="#000000" stroke-width="2" points="410.7078,-217.1357 418.4189,-209.8701 407.86,-210.7411 410.7078,-217.1357"/>
</g>
<!-- Energy_Source -->
<g id="node9" class="node">
<title>Energy_Source</title>
<path fill="#afaf30" stroke="#000000" d="M238,-205.2169C238,-208.0638 184.6623,-210.3763 119,-210.3763 53.3377,-210.3763 0,-208.0638 0,-205.2169 0,-205.2169 0,-158.7831 0,-158.7831 0,-155.9362 53.3377,-153.6237 119,-153.6237 184.6623,-153.6237 238,-155.9362 238,-158.7831 238,-158.7831 238,-205.2169 238,-205.2169"/>
<path fill="none" stroke="#000000" d="M238,-205.2169C238,-202.3701 184.6623,-200.0576 119,-200.0576 53.3377,-200.0576 0,-202.3701 0,-205.2169"/>
<text text-anchor="middle" x="119" y="-174.5" font-family="Helvetica,sans-Serif" font-size="30.00" fill="#000000">Energy_Source</text>
</g>
<!-- Generation_System&#45;&gt;Energy_Source -->
<g id="edge14" class="edge">
<title>Generation_System&#45;&gt;Energy_Source</title>
<path fill="none" stroke="#000000" stroke-width="2" d="M203.7851,-263.0988C189.1446,-249.0948 171.4318,-232.1521 155.99,-217.3817"/>
<polygon fill="#000000" stroke="#000000" stroke-width="2" points="158.2611,-214.7107 148.6154,-210.3277 153.4225,-219.7692 158.2611,-214.7107"/>
</g>
<!-- Retailer -->
<g id="node5" class="node">
<title>Retailer</title>
<ellipse fill="#00ff00" stroke="#000000" cx="941" cy="-402" rx="94.0904" ry="28.9828"/>
<text text-anchor="middle" x="941" y="-394.5" font-family="Helvetica,sans-Serif" font-size="30.00" fill="#000000">Retailer</text>
</g>
<!-- money -->
<g id="node7" class="node">
<title>money</title>
<polygon fill="#eee8aa" stroke="#000000" points="1084.5,-312.5 971.5,-312.5 971.5,-271.5 1090.5,-271.5 1090.5,-306.5 1084.5,-312.5"/>
<polyline fill="none" stroke="#000000" points="1084.5,-312.5 1084.5,-306.5 "/>
<polyline fill="none" stroke="#000000" points="1090.5,-306.5 1084.5,-306.5 "/>
<text text-anchor="middle" x="1031" y="-284.5" font-family="Helvetica,sans-Serif" font-size="30.00" fill="#000000">money</text>
</g>
<!-- Retailer&#45;&gt;money -->
<g id="edge10" class="edge">
<title>Retailer&#45;&gt;money</title>
<path fill="none" stroke="#000000" stroke-width="2" d="M964.1772,-373.6723C977.4827,-357.41 994.1468,-337.0428 1007.5052,-320.7159"/>
<polygon fill="#000000" stroke="#000000" stroke-width="2" points="1010.5306,-322.5453 1014.1542,-312.5893 1005.1129,-318.1126 1010.5306,-322.5453"/>
</g>
<!-- bill&#45;&gt;Retailer -->
<g id="edge13" class="edge">
<title>bill&#45;&gt;Retailer</title>
<path fill="none" stroke="#000000" stroke-width="2" d="M934.5047,-490.4979C935.5243,-476.6069 936.9039,-457.8098 938.1294,-441.1118"/>
<polygon fill="#000000" stroke="#000000" stroke-width="2" points="941.6265,-441.2783 938.868,-431.0489 934.6453,-440.7659 941.6265,-441.2783"/>
</g>
<!-- money&#45;&gt;People -->
<g id="edge11" class="edge">
<title>money&#45;&gt;People</title>
<path fill="none" stroke="#000000" stroke-width="2" d="M1037.7462,-312.7396C1045.6481,-340.3366 1056.2043,-390.3726 1044,-430.9914 1025.2399,-493.4294 975.5468,-551.4797 940.486,-586.5843"/>
<polygon fill="#000000" stroke="#000000" stroke-width="2" points="937.9101,-584.2088 933.2429,-593.7202 942.8228,-589.1953 937.9101,-584.2088"/>
</g>
<!-- electricity -->
<g id="node8" class="node">
<title>electricity</title>
<polygon fill="#bfbfbf" stroke="#000000" points="752,-312.5 586,-312.5 586,-271.5 752,-271.5 752,-312.5"/>
<text text-anchor="middle" x="669" y="-284.5" font-family="Helvetica,sans-Serif" font-size="30.00" fill="#000000">electricity</text>
</g>
<!-- electricity&#45;&gt;Distribution_System -->
<g id="edge8" class="edge">
<title>electricity&#45;&gt;Distribution_System</title>
<path fill="none" stroke="#000000" stroke-width="2" d="M633.6386,-271.3098C606.9194,-255.6762 569.6757,-233.8847 538.6667,-215.7411"/>
<polygon fill="#000000" stroke="#000000" stroke-width="2" points="540.0808,-212.5135 529.6821,-210.4842 536.5457,-218.5553 540.0808,-212.5135"/>
</g>
<!-- cables -->
<g id="node12" class="node">
<title>cables</title>
<polygon fill="#ffff00" stroke="#000000" points="836.5,-202.5 727.5,-202.5 723.5,-198.5 723.5,-161.5 832.5,-161.5 836.5,-165.5 836.5,-202.5"/>
<polyline fill="none" stroke="#000000" points="832.5,-198.5 723.5,-198.5 "/>
<polyline fill="none" stroke="#000000" points="832.5,-198.5 832.5,-161.5 "/>
<polyline fill="none" stroke="#000000" points="832.5,-198.5 836.5,-202.5 "/>
<text text-anchor="middle" x="780" y="-174.5" font-family="Helvetica,sans-Serif" font-size="30.00" fill="#000000">cables</text>
</g>
<!-- electricity&#45;&gt;cables -->
<g id="edge4" class="edge">
<title>electricity&#45;&gt;cables</title>
<path fill="none" stroke="#000000" stroke-width="2" d="M689.8783,-271.3098C707.3977,-253.9482 732.5806,-228.9922 751.8748,-209.8718"/>
<polygon fill="#000000" stroke="#000000" stroke-width="2" points="754.576,-212.1225 759.2154,-202.5974 749.6487,-207.1504 754.576,-212.1225"/>
</g>
<!-- Gravity -->
<g id="node10" class="node">
<title>Gravity</title>
<path fill="#afaf30" stroke="#000000" d="M182.5,-97.2169C182.5,-100.0638 154.0383,-102.3763 119,-102.3763 83.9617,-102.3763 55.5,-100.0638 55.5,-97.2169 55.5,-97.2169 55.5,-50.7831 55.5,-50.7831 55.5,-47.9362 83.9617,-45.6237 119,-45.6237 154.0383,-45.6237 182.5,-47.9362 182.5,-50.7831 182.5,-50.7831 182.5,-97.2169 182.5,-97.2169"/>
<path fill="none" stroke="#000000" d="M182.5,-97.2169C182.5,-94.3701 154.0383,-92.0576 119,-92.0576 83.9617,-92.0576 55.5,-94.3701 55.5,-97.2169"/>
<text text-anchor="middle" x="119" y="-66.5" font-family="Helvetica,sans-Serif" font-size="30.00" fill="#000000">Gravity</text>
</g>
<!-- Energy_Source&#45;&gt;Gravity -->
<g id="edge15" class="edge">
<title>Energy_Source&#45;&gt;Gravity</title>
<path fill="none" stroke="#000000" stroke-width="2" d="M119,-153.6243C119,-141.0741 119,-126.1199 119,-112.5781"/>
<polygon fill="#000000" stroke="#000000" stroke-width="2" points="122.5001,-112.5612 119,-102.5612 115.5001,-112.5612 122.5001,-112.5612"/>
</g>
<!-- lights&#45;&gt;electricity -->
<g id="edge2" class="edge">
<title>lights&#45;&gt;electricity</title>
<path fill="none" stroke="#000000" stroke-width="2" d="M759.1217,-381.3098C741.6023,-363.9482 716.4194,-338.9922 697.1252,-319.8718"/>
<polygon fill="#000000" stroke="#000000" stroke-width="2" points="699.3513,-317.1504 689.7846,-312.5974 694.424,-322.1225 699.3513,-317.1504"/>
</g>
<!-- lights&#45;&gt;cables -->
<g id="edge1" class="edge">
<title>lights&#45;&gt;cables</title>
<path fill="none" stroke="#000000" stroke-width="2" d="M780,-381.3029C780,-342.4848 780,-258.5657 780,-212.9831"/>
<polygon fill="#000000" stroke="#000000" stroke-width="2" points="783.5001,-212.8023 780,-202.8023 776.5001,-212.8024 783.5001,-212.8023"/>
</g>
<!-- switch -->
<g id="node13" class="node">
<title>switch</title>
<polygon fill="#ffff00" stroke="#000000" points="921.5,-312.5 812.5,-312.5 808.5,-308.5 808.5,-271.5 917.5,-271.5 921.5,-275.5 921.5,-312.5"/>
<polyline fill="none" stroke="#000000" points="917.5,-308.5 808.5,-308.5 "/>
<polyline fill="none" stroke="#000000" points="917.5,-308.5 917.5,-271.5 "/>
<polyline fill="none" stroke="#000000" points="917.5,-308.5 921.5,-312.5 "/>
<text text-anchor="middle" x="865" y="-284.5" font-family="Helvetica,sans-Serif" font-size="30.00" fill="#000000">switch</text>
</g>
<!-- lights&#45;&gt;switch -->
<g id="edge3" class="edge">
<title>lights&#45;&gt;switch</title>
<path fill="none" stroke="#000000" stroke-width="2" d="M795.9878,-381.3098C809.2256,-364.1787 828.1769,-339.6534 842.872,-320.6363"/>
<polygon fill="#000000" stroke="#000000" stroke-width="2" points="845.7388,-322.6503 849.0838,-312.5974 840.1998,-318.3702 845.7388,-322.6503"/>
</g>
</g>
</svg>
