<?xml version="1.0" encoding="UTF-8" standalone="no"?>
<!DOCTYPE svg PUBLIC "-//W3C//DTD SVG 1.1//EN"
 "http://www.w3.org/Graphics/SVG/1.1/DTD/svg11.dtd">
<!-- Generated by graphviz version 2.40.1 (20161225.0304)
 -->
<!-- Title: electricty Pages: 1 -->
<svg width="1452pt" height="851pt"
 viewBox="0.00 0.00 1451.51 850.93" xmlns="http://www.w3.org/2000/svg" xmlns:xlink="http://www.w3.org/1999/xlink">
<g id="graph0" class="graph" transform="scale(1 1) rotate(0) translate(4 846.931)">
<title>electricty</title>
<polygon fill="#ffffff" stroke="transparent" points="-4,4 -4,-846.931 1447.5099,-846.931 1447.5099,4 -4,4"/>
<text text-anchor="middle" x="721.755" y="-13" font-family="Helvetica,sans-Serif" font-size="30.00" fill="#000000">Electricity &#45;&#45; how does it work?</text>
<!-- Light_Seers -->
<g id="node1" class="node">
<title>Light_Seers</title>
<ellipse fill="#5f7fff" stroke="#000000" cx="966" cy="-814" rx="134.2007" ry="28.9828"/>
<text text-anchor="middle" x="966" y="-806.5" font-family="Helvetica,sans-Serif" font-size="30.00" fill="#000000">Light_Seers</text>
</g>
<!-- electricity_bill -->
<g id="node5" class="node">
<title>electricity_bill</title>
<polygon fill="#eee8aa" stroke="#000000" points="436,-440.5 218,-440.5 218,-399.5 442,-399.5 442,-434.5 436,-440.5"/>
<polyline fill="none" stroke="#000000" points="436,-440.5 436,-434.5 "/>
<polyline fill="none" stroke="#000000" points="442,-434.5 436,-434.5 "/>
<text text-anchor="middle" x="330" y="-412.5" font-family="Helvetica,sans-Serif" font-size="30.00" fill="#000000">electricity_bill</text>
</g>
<!-- Light_Seers&#45;&gt;electricity_bill -->
<g id="edge13" class="edge">
<title>Light_Seers&#45;&gt;electricity_bill</title>
<path fill="none" stroke="#000000" stroke-width="2" d="M827.312,-804.7481C560.0914,-785.0524 0,-733.8842 0,-651 0,-651 0,-651 0,-574 0,-520.9751 141.6783,-471.3208 239.3708,-443.3851"/>
<polygon fill="#000000" stroke="#000000" stroke-width="2" points="827.2441,-808.2525 837.4731,-805.4923 827.7555,-801.2712 827.2441,-808.2525"/>
<polygon fill="#000000" stroke="#000000" stroke-width="2" points="240.6029,-446.674 249.2729,-440.5845 238.6978,-439.9383 240.6029,-446.674"/>
</g>
<!-- lights -->
<g id="node7" class="node">
<title>lights</title>
<polygon fill="#ffff00" stroke="#000000" points="1015,-748.5 921,-748.5 917,-744.5 917,-707.5 1011,-707.5 1015,-711.5 1015,-748.5"/>
<polyline fill="none" stroke="#000000" points="1011,-744.5 917,-744.5 "/>
<polyline fill="none" stroke="#000000" points="1011,-744.5 1011,-707.5 "/>
<polyline fill="none" stroke="#000000" points="1011,-744.5 1015,-748.5 "/>
<text text-anchor="middle" x="966" y="-720.5" font-family="Helvetica,sans-Serif" font-size="30.00" fill="#000000">lights</text>
</g>
<!-- Light_Seers&#45;&gt;lights -->
<g id="edge4" class="edge">
<title>Light_Seers&#45;&gt;lights</title>
<path fill="none" stroke="#000000" stroke-width="2" d="M966,-784.8843C966,-776.5242 966,-767.3798 966,-758.9153"/>
<polygon fill="#000000" stroke="#000000" stroke-width="2" points="969.5001,-758.6675 966,-748.6675 962.5001,-758.6676 969.5001,-758.6675"/>
</g>
<!-- operators -->
<g id="node2" class="node">
<title>operators</title>
<ellipse fill="#00ef00" stroke="#000000" cx="520" cy="-70" rx="113.6886" ry="28.9828"/>
<text text-anchor="middle" x="520" y="-62.5" font-family="Helvetica,sans-Serif" font-size="30.00" fill="#000000">operators</text>
</g>
<!-- retailer -->
<g id="node3" class="node">
<title>retailer</title>
<ellipse fill="#00ef00" stroke="#000000" cx="330" cy="-335" rx="88.2768" ry="28.9828"/>
<text text-anchor="middle" x="330" y="-327.5" font-family="Helvetica,sans-Serif" font-size="30.00" fill="#000000">retailer</text>
</g>
<!-- distributor -->
<g id="node4" class="node">
<title>distributor</title>
<ellipse fill="#00ef00" stroke="#000000" cx="330" cy="-241" rx="120.8306" ry="28.9828"/>
<text text-anchor="middle" x="330" y="-233.5" font-family="Helvetica,sans-Serif" font-size="30.00" fill="#000000">distributor</text>
</g>
<!-- retailer&#45;&gt;distributor -->
<g id="edge17" class="edge">
<title>retailer&#45;&gt;distributor</title>
<path fill="none" stroke="#000000" stroke-width="2" d="M330,-305.7731C330,-297.7268 330,-288.8655 330,-280.3487"/>
<polygon fill="#000000" stroke="#000000" stroke-width="2" points="333.5001,-280.2088 330,-270.2088 326.5001,-280.2089 333.5001,-280.2088"/>
</g>
<!-- power_station -->
<g id="node14" class="node">
<title>power_station</title>
<polygon fill="#ffff00" stroke="#000000" points="633.5,-175.5 410.5,-175.5 406.5,-171.5 406.5,-134.5 629.5,-134.5 633.5,-138.5 633.5,-175.5"/>
<polyline fill="none" stroke="#000000" points="629.5,-171.5 406.5,-171.5 "/>
<polyline fill="none" stroke="#000000" points="629.5,-171.5 629.5,-134.5 "/>
<polyline fill="none" stroke="#000000" points="629.5,-171.5 633.5,-175.5 "/>
<text text-anchor="middle" x="520" y="-147.5" font-family="Helvetica,sans-Serif" font-size="30.00" fill="#000000">power_station</text>
</g>
<!-- distributor&#45;&gt;power_station -->
<g id="edge18" class="edge">
<title>distributor&#45;&gt;power_station</title>
<path fill="none" stroke="#000000" stroke-width="2" d="M386.7489,-215.3137C411.668,-204.0345 440.8025,-190.8473 465.4632,-179.6851"/>
<polygon fill="#000000" stroke="#000000" stroke-width="2" points="467.0105,-182.8266 474.6775,-175.5144 464.124,-176.4495 467.0105,-182.8266"/>
</g>
<!-- electricity_bill&#45;&gt;retailer -->
<g id="edge16" class="edge">
<title>electricity_bill&#45;&gt;retailer</title>
<path fill="none" stroke="#000000" stroke-width="2" d="M330,-399.4239C330,-391.796 330,-382.8706 330,-374.136"/>
<polygon fill="#000000" stroke="#000000" stroke-width="2" points="333.5001,-374.059 330,-364.059 326.5001,-374.059 333.5001,-374.059"/>
</g>
<!-- electrons -->
<g id="node6" class="node">
<title>electrons</title>
<polygon fill="#bfbfbf" stroke="#000000" points="906.5,-671.5 751.5,-671.5 751.5,-630.5 906.5,-630.5 906.5,-671.5"/>
<text text-anchor="middle" x="829" y="-643.5" font-family="Helvetica,sans-Serif" font-size="30.00" fill="#000000">electrons</text>
</g>
<!-- wiring -->
<g id="node8" class="node">
<title>wiring</title>
<polygon fill="#ffff00" stroke="#000000" points="1155.5,-594.5 1052.5,-594.5 1048.5,-590.5 1048.5,-553.5 1151.5,-553.5 1155.5,-557.5 1155.5,-594.5"/>
<polyline fill="none" stroke="#000000" points="1151.5,-590.5 1048.5,-590.5 "/>
<polyline fill="none" stroke="#000000" points="1151.5,-590.5 1151.5,-553.5 "/>
<polyline fill="none" stroke="#000000" points="1151.5,-590.5 1155.5,-594.5 "/>
<text text-anchor="middle" x="1102" y="-566.5" font-family="Helvetica,sans-Serif" font-size="30.00" fill="#000000">wiring</text>
</g>
<!-- electrons&#45;&gt;wiring -->
<g id="edge6" class="edge">
<title>electrons&#45;&gt;wiring</title>
<path fill="none" stroke="#000000" stroke-width="2" d="M901.8004,-630.4666C944.4096,-618.4486 997.6937,-603.4197 1038.5761,-591.8888"/>
<polygon fill="#000000" stroke="#000000" stroke-width="2" points="1039.7484,-595.1948 1048.4228,-589.1115 1037.8481,-588.4576 1039.7484,-595.1948"/>
</g>
<!-- generator -->
<g id="node10" class="node">
<title>generator</title>
<polygon fill="#ffff00" stroke="#000000" points="365,-594.5 205,-594.5 201,-590.5 201,-553.5 361,-553.5 365,-557.5 365,-594.5"/>
<polyline fill="none" stroke="#000000" points="361,-590.5 201,-590.5 "/>
<polyline fill="none" stroke="#000000" points="361,-590.5 361,-553.5 "/>
<polyline fill="none" stroke="#000000" points="361,-590.5 365,-594.5 "/>
<text text-anchor="middle" x="283" y="-566.5" font-family="Helvetica,sans-Serif" font-size="30.00" fill="#000000">generator</text>
</g>
<!-- electrons&#45;&gt;generator -->
<g id="edge7" class="edge">
<title>electrons&#45;&gt;generator</title>
<path fill="none" stroke="#000000" stroke-width="2" d="M751.3514,-640.0496C652.239,-626.0722 480.9877,-601.9213 375.3073,-587.0177"/>
<polygon fill="#000000" stroke="#000000" stroke-width="2" points="375.6803,-583.5358 365.2895,-585.6049 374.7028,-590.4672 375.6803,-583.5358"/>
</g>
<!-- mains -->
<g id="node11" class="node">
<title>mains</title>
<polygon fill="#ffff00" stroke="#000000" points="733.5,-594.5 630.5,-594.5 626.5,-590.5 626.5,-553.5 729.5,-553.5 733.5,-557.5 733.5,-594.5"/>
<polyline fill="none" stroke="#000000" points="729.5,-590.5 626.5,-590.5 "/>
<polyline fill="none" stroke="#000000" points="729.5,-590.5 729.5,-553.5 "/>
<polyline fill="none" stroke="#000000" points="729.5,-590.5 733.5,-594.5 "/>
<text text-anchor="middle" x="680" y="-566.5" font-family="Helvetica,sans-Serif" font-size="30.00" fill="#000000">mains</text>
</g>
<!-- electrons&#45;&gt;mains -->
<g id="edge9" class="edge">
<title>electrons&#45;&gt;mains</title>
<path fill="none" stroke="#000000" stroke-width="2" d="M789.0707,-630.3654C770.5409,-620.7896 748.3449,-609.3192 728.8273,-599.2329"/>
<polygon fill="#000000" stroke="#000000" stroke-width="2" points="730.2716,-596.0396 719.7809,-594.5579 727.0579,-602.2583 730.2716,-596.0396"/>
</g>
<!-- transmission_lines -->
<g id="node13" class="node">
<title>transmission_lines</title>
<polygon fill="#ffff00" stroke="#000000" points="859.5,-517.5 570.5,-517.5 566.5,-513.5 566.5,-476.5 855.5,-476.5 859.5,-480.5 859.5,-517.5"/>
<polyline fill="none" stroke="#000000" points="855.5,-513.5 566.5,-513.5 "/>
<polyline fill="none" stroke="#000000" points="855.5,-513.5 855.5,-476.5 "/>
<polyline fill="none" stroke="#000000" points="855.5,-513.5 859.5,-517.5 "/>
<text text-anchor="middle" x="713" y="-489.5" font-family="Helvetica,sans-Serif" font-size="30.00" fill="#000000">transmission_lines</text>
</g>
<!-- electrons&#45;&gt;transmission_lines -->
<g id="edge10" class="edge">
<title>electrons&#45;&gt;transmission_lines</title>
<path fill="none" stroke="#000000" stroke-width="2" d="M813.3557,-630.2309C793.1189,-603.3648 757.756,-556.4175 734.8686,-526.0324"/>
<polygon fill="#000000" stroke="#000000" stroke-width="2" points="737.5792,-523.8136 728.7669,-517.9319 731.9879,-528.0253 737.5792,-523.8136"/>
</g>
<!-- lights&#45;&gt;electrons -->
<g id="edge1" class="edge">
<title>lights&#45;&gt;electrons</title>
<path fill="none" stroke="#000000" stroke-width="2" d="M929.2865,-707.3654C912.5478,-697.9575 892.5554,-686.7209 874.8412,-676.7648"/>
<polygon fill="#000000" stroke="#000000" stroke-width="2" points="876.2472,-673.5401 865.8148,-671.6915 872.8174,-679.6423 876.2472,-673.5401"/>
</g>
<!-- lights&#45;&gt;wiring -->
<g id="edge2" class="edge">
<title>lights&#45;&gt;wiring</title>
<path fill="none" stroke="#000000" stroke-width="2" d="M984.3416,-707.2309C1008.1688,-680.25 1049.8821,-633.0159 1076.7042,-602.6438"/>
<polygon fill="#000000" stroke="#000000" stroke-width="2" points="1079.5187,-604.7443 1083.5147,-594.9319 1074.2718,-600.1107 1079.5187,-604.7443"/>
</g>
<!-- switch -->
<g id="node9" class="node">
<title>switch</title>
<polygon fill="#ffff00" stroke="#000000" points="1354.5,-517.5 1245.5,-517.5 1241.5,-513.5 1241.5,-476.5 1350.5,-476.5 1354.5,-480.5 1354.5,-517.5"/>
<polyline fill="none" stroke="#000000" points="1350.5,-513.5 1241.5,-513.5 "/>
<polyline fill="none" stroke="#000000" points="1350.5,-513.5 1350.5,-476.5 "/>
<polyline fill="none" stroke="#000000" points="1350.5,-513.5 1354.5,-517.5 "/>
<text text-anchor="middle" x="1298" y="-489.5" font-family="Helvetica,sans-Serif" font-size="30.00" fill="#000000">switch</text>
</g>
<!-- wiring&#45;&gt;switch -->
<g id="edge3" class="edge">
<title>wiring&#45;&gt;switch</title>
<path fill="none" stroke="#000000" stroke-width="2" d="M1154.2669,-553.4666C1179.4157,-543.5867 1209.7441,-531.6719 1236.0471,-521.3386"/>
<polygon fill="#000000" stroke="#000000" stroke-width="2" points="1237.5108,-524.5241 1245.5385,-517.6099 1234.9512,-518.0088 1237.5108,-524.5241"/>
</g>
<!-- switch&#45;&gt;Light_Seers -->
<g id="edge5" class="edge">
<title>switch&#45;&gt;Light_Seers</title>
<path fill="none" stroke="#000000" stroke-width="2" d="M1276.2616,-517.7562C1220.6217,-570.8823 1072.5597,-712.2547 1003.0339,-778.6393"/>
<polygon fill="#000000" stroke="#000000" stroke-width="2" points="1000.5705,-776.1522 995.755,-785.5894 1005.4046,-781.215 1000.5705,-776.1522"/>
</g>
<!-- fuel -->
<g id="node12" class="node">
<title>fuel</title>
<polygon fill="#ffff00" stroke="#000000" points="232.5,-517.5 163.5,-517.5 159.5,-513.5 159.5,-476.5 228.5,-476.5 232.5,-480.5 232.5,-517.5"/>
<polyline fill="none" stroke="#000000" points="228.5,-513.5 159.5,-513.5 "/>
<polyline fill="none" stroke="#000000" points="228.5,-513.5 228.5,-476.5 "/>
<polyline fill="none" stroke="#000000" points="228.5,-513.5 232.5,-517.5 "/>
<text text-anchor="middle" x="196" y="-489.5" font-family="Helvetica,sans-Serif" font-size="30.00" fill="#000000">fuel</text>
</g>
<!-- generator&#45;&gt;fuel -->
<g id="edge8" class="edge">
<title>generator&#45;&gt;fuel</title>
<path fill="none" stroke="#000000" stroke-width="2" d="M259.6856,-553.3654C249.641,-544.4754 237.7514,-533.9524 226.9811,-524.42"/>
<polygon fill="#000000" stroke="#000000" stroke-width="2" points="229.1868,-521.6983 219.3788,-517.6915 224.5474,-526.9401 229.1868,-521.6983"/>
</g>
<!-- mains&#45;&gt;transmission_lines -->
<g id="edge14" class="edge">
<title>mains&#45;&gt;transmission_lines</title>
<path fill="none" stroke="#000000" stroke-width="2" d="M688.8434,-553.3654C692.3205,-545.2522 696.3805,-535.7789 700.1687,-526.9397"/>
<polygon fill="#000000" stroke="#000000" stroke-width="2" points="703.41,-528.2617 704.1322,-517.6915 696.9759,-525.5043 703.41,-528.2617"/>
</g>
<!-- transmission_lines&#45;&gt;electricity_bill -->
<g id="edge15" class="edge">
<title>transmission_lines&#45;&gt;electricity_bill</title>
<path fill="none" stroke="#000000" stroke-width="2" d="M610.8661,-476.4666C558.817,-466.0024 495.414,-453.2556 442.0282,-442.5226"/>
<polygon fill="#000000" stroke="#000000" stroke-width="2" points="442.6752,-439.0828 432.1815,-440.543 441.2954,-445.9454 442.6752,-439.0828"/>
</g>
<!-- transmission_lines&#45;&gt;power_station -->
<g id="edge11" class="edge">
<title>transmission_lines&#45;&gt;power_station</title>
<path fill="none" stroke="#000000" stroke-width="2" d="M701.3616,-476.3766C668.5146,-418.1709 574.9965,-252.455 536.6815,-184.56"/>
<polygon fill="#000000" stroke="#000000" stroke-width="2" points="539.6164,-182.6391 531.6535,-175.6503 533.5202,-186.0794 539.6164,-182.6391"/>
</g>
<!-- power_station&#45;&gt;operators -->
<g id="edge12" class="edge">
<title>power_station&#45;&gt;operators</title>
<path fill="none" stroke="#000000" stroke-width="2" d="M520,-134.4239C520,-126.796 520,-117.8706 520,-109.136"/>
<polygon fill="#000000" stroke="#000000" stroke-width="2" points="523.5001,-109.059 520,-99.059 516.5001,-109.059 523.5001,-109.059"/>
</g>
</g>
</svg>
